<svg width="1200" height="200" viewBox="0 0 1200 200" fill="none" xmlns="http://www.w3.org/2000/svg">
<g clip-path="url(#clip0)">
<path d="M1241 -55H-41V255H1241V-55Z" fill="#007278"/>
<path d="M911.38 250.814L983.03 211.216C989.13 207.849 989.13 199.035 983.03 195.669L884.41 141.216L911.38 250.814Z" fill="#00666B"/>
<path d="M923.66 10.171L797 -54.9144C795.93 -55.5376 794.95 -55.3265 794.24 -54.4923V-54.5024L786.97 -49.5677L792.54 -30.5024L786.55 164.131C786.45 167.437 788.01 171.086 790.01 172.251L900.33 236.241L910.98 250.714L918.36 245.849L918.33 245.779C919.41 245.337 920.18 243.839 920.25 241.679L927.13 18.2815C927.23 14.9851 925.67 11.3368 923.66 10.171Z" fill="#00585C"/>
<path d="M908.83 250.673L782.7 180.563C780.7 179.447 779.14 175.839 779.24 172.533L785.97 -46.1608C786.07 -49.4674 787.79 -51.2563 789.8 -50.1407L916.07 15.2764C918.07 16.3919 919.63 20 919.53 23.3065L912.65 246.704C912.55 250 910.83 251.789 908.83 250.673Z" fill="#00666B"/>
<path d="M905.9 234.241L789.45 169.498L795.63 -31.4873L912.23 28.7439L905.9 234.241Z" fill="#00878F"/>
<path d="M880.76 -6.19098L879.67 -6.76385C878.99 -13.5779 875.08 -20.593 870.34 -23.0754L838.95 -39.5076C834.21 -41.99 830.2 -39.1156 829.39 -33.0855L828.3 -33.6583C823.04 -36.4121 818.67 -32.5729 818.6 -25.1257C818.53 -17.6784 822.77 -9.32666 828.04 -6.5729L880.51 20.8944C885.77 23.6482 890.14 19.809 890.21 12.3618C890.27 4.91455 886.03 -3.43721 880.76 -6.19098Z" fill="#00585C"/>
<path d="M900.9 99.367C900.71 99.367 900.52 99.3268 900.34 99.2263L803.34 45.97C802.77 45.6585 802.57 44.9449 802.87 44.372C803.19 43.7992 803.89 43.5982 804.46 43.8997L901.46 97.156C902.03 97.4675 902.23 98.1811 901.93 98.7539C901.72 99.1459 901.32 99.367 900.9 99.367Z" fill="#00666B"/>
<path d="M900.9 115.588C900.71 115.588 900.52 115.548 900.34 115.448L803.34 62.1913C802.77 61.8797 802.57 61.1662 802.87 60.5933C803.19 60.0204 803.89 59.8094 804.46 60.1209L901.46 113.377C902.03 113.689 902.23 114.402 901.93 114.975C901.72 115.367 901.32 115.588 900.9 115.588Z" fill="#00666B"/>
<path d="M900.9 131.809C900.71 131.809 900.52 131.769 900.34 131.669L803.34 78.4125C802.77 78.1009 802.57 77.3873 802.87 76.8145C803.19 76.2416 803.89 76.0306 804.46 76.3421L901.46 129.598C902.03 129.91 902.23 130.624 901.93 131.196C901.72 131.588 901.32 131.809 900.9 131.809Z" fill="#00666B"/>
<path d="M900.9 148.03C900.71 148.03 900.52 147.99 900.34 147.889L803.34 94.6331C802.77 94.3216 802.57 93.608 802.87 93.0351C803.19 92.4623 803.89 92.2613 804.46 92.5628L901.46 145.819C902.03 146.131 902.23 146.844 901.93 147.417C901.72 147.809 901.32 148.03 900.9 148.03Z" fill="#00666B"/>
<path d="M900.9 164.262C900.71 164.262 900.52 164.211 900.34 164.121L803.34 110.865C802.77 110.553 802.57 109.84 802.87 109.267C803.19 108.694 803.89 108.483 804.46 108.794L901.46 162.051C902.03 162.362 902.23 163.076 901.93 163.649C901.72 164.041 901.32 164.262 900.9 164.262Z" fill="#00878F"/>
<path d="M894.61 199.508C894.42 199.508 894.23 199.457 894.05 199.367L843.93 171.849C843.36 171.538 843.16 170.824 843.46 170.251C843.77 169.689 844.48 169.478 845.05 169.779L895.17 197.297C895.74 197.608 895.94 198.322 895.64 198.895C895.42 199.287 895.02 199.508 894.61 199.508Z" fill="#00666B"/>
<path d="M877.25 -3.61774L876.16 -4.1906C875.48 -11.0047 871.57 -18.0198 866.83 -20.5022L835.44 -36.9343C830.7 -39.4167 826.69 -36.5424 825.88 -30.5122L824.79 -31.0851C819.53 -33.8388 815.16 -29.9996 815.09 -22.5524C815.02 -15.1052 819.26 -6.75342 824.53 -3.99965L877 23.4677C882.26 26.2215 886.63 22.3823 886.7 14.935C886.76 7.48779 882.51 -0.863968 877.25 -3.61774Z" fill="#00666B"/>
<path d="M872.57 1.08547C872.45 1.08547 872.33 1.05532 872.22 0.995022L828.01 -23.1155C827.66 -23.3065 827.52 -23.7587 827.72 -24.1105C827.91 -24.4623 828.35 -24.5929 828.71 -24.412L872.92 -0.301462C873.27 -0.110506 873.41 0.341753 873.21 0.693512C873.08 0.944767 872.83 1.08547 872.57 1.08547Z" fill="#00585C"/>
<path d="M824.34 9.82915C823.02 11.1156 822.37 11.8291 821.07 13.3065C819.86 10.6633 817.82 8.43217 816.17 7.5779C814.42 6.67337 813.04 6.95478 812.95 9.10553C812.89 10.6131 814.21 12.4623 815.93 14.3216C818.46 17.0553 821.75 20.7337 821.4 26.2513C821.12 30.6734 819.46 33.5779 817.4 34.4322C815.38 35.2764 813.12 35.0754 811.08 34.0201C808.18 32.5226 805.93 29.5477 804.34 24.995C805.54 23.1357 806.15 22.2211 807.41 20.4322C808.44 23.5075 810.45 26.603 812.26 27.5578C814.17 28.5628 815.62 27.7085 815.76 25.2362C815.85 23.4673 814.5 21.5578 812.85 19.7286C810.47 17.0955 807.55 13.3668 807.75 8.50252C807.9 4.82412 808.75 2.61307 810.42 1.6985C812.11 0.773873 814.33 1.11558 817.16 2.57287C818.56 3.29649 819.88 4.24121 821.09 5.46734C822.3 6.69347 823.16 7.70855 823.61 8.56282C823.91 9.07538 824.05 9.32664 824.34 9.82915Z" fill="#00666B"/>
<path d="M843.3 31.0655C841.91 32.5931 840.22 33.2665 838.28 33.0153C839.64 39.7087 840.29 43.2364 841.73 49.6786C838.96 48.1811 837.58 47.4374 834.87 45.9801C833.77 40.1208 833.28 36.9751 832.25 30.9349C831.53 30.5529 831.18 30.362 830.47 29.9801C829.44 34.9148 828.93 37.4876 828.04 42.3218C825.78 41.1158 824.66 40.5228 822.47 39.367C824.66 26.5027 826.37 18.5027 828.51 8.8042C832.12 10.6735 833.98 11.6283 837.72 13.568C840.24 14.8746 842.32 16.4725 843.85 18.3821C845.39 20.2916 846.05 22.4725 845.78 25.166C845.53 27.558 844.69 29.5479 843.3 31.0655ZM835.73 17.8695C834.79 17.3771 834.31 17.1359 833.38 16.6534C832.74 19.4675 832.4 21.0153 831.72 24.1811C832.64 24.6635 833.1 24.9047 834.03 25.3972C836.88 26.8946 839.05 26.3017 839.35 23.0153C839.54 20.8645 838.32 19.2163 835.73 17.8695Z" fill="#00666B"/>
<path d="M846.21 34.8442C850.42 37.0955 852.55 38.2312 856.79 40.5025C856.18 42.8241 855.87 44.0101 855.28 46.3618C851.06 44.0704 848.95 42.9246 844.78 40.6734C845.35 38.3317 845.64 37.1558 846.21 34.8442Z" fill="#00666B"/>
<path d="M865.56 56.2011C870.28 58.8041 872.63 60.1006 877.25 62.6634C876.69 65.0553 876.41 66.2212 875.9 68.4021C868.42 64.2513 864.59 62.1307 857.02 58C857.18 56.0403 857.27 55.0252 857.46 52.9548C861.92 51.0151 864.22 49.9498 868.72 47.8392C869.81 47.2965 870.7 46.8242 871.31 46.4825C871.94 46.1307 872.65 45.4875 873.37 44.5528C874.09 43.6282 874.54 42.6232 874.67 41.5377C874.96 39.1257 873.63 37.2563 871.59 36.2011C869.32 35.0252 866.95 35.1357 864.36 36.8141C863.79 34.4121 863.5 33.2563 862.9 31.0352C865.6 29.1357 869.44 29.5779 873.55 31.6985C875.83 32.8744 877.64 34.3217 879.02 36.2011C880.41 38.0804 880.94 40.191 880.64 42.8342C880.05 48.0704 877.18 51.0654 872.5 53.1558C869.74 54.4222 868.34 55.0453 865.56 56.2011Z" fill="#00666B"/>
<path d="M888.53 68.9446C892.95 71.417 895.11 72.6331 899.24 74.9647C898.91 77.5275 898.75 78.7738 898.46 81.0552C891.55 77.1456 887.9 75.0954 880.49 70.9647C880.61 69.015 880.69 67.9898 880.85 65.8793C885.12 63.829 887.24 62.5929 891.17 60.03C892.12 59.3768 892.87 58.8039 893.39 58.3818C893.92 57.9496 894.51 57.2059 895.09 56.1406C895.67 55.0853 896 53.9697 896.06 52.8039C896.21 50.221 895.06 48.4019 893.34 47.5074C891.42 46.5124 889.4 46.8542 887.11 48.8039C886.58 46.3416 886.32 45.1557 885.77 42.9145C888.17 40.7536 891.44 40.8843 894.79 42.5928C896.66 43.5476 898.1 44.8039 899.26 46.5928C900.42 48.3818 900.96 50.5526 900.88 53.417C900.73 59.1054 898.64 62.7235 894.65 65.3165C892.3 66.8944 891.06 67.628 888.53 68.9446Z" fill="#00666B"/>
<path d="M855.33 167.487C849.94 168.764 844.51 169.307 838.98 169.116C839.07 169.437 839.15 169.759 839.24 170.08C849.77 164.854 862.85 160.543 874.74 161.789C874.59 161.528 874.44 161.266 874.29 161.005C872.22 163.98 868.7 165.477 865.57 167.045C862.44 168.603 859.26 170.06 856.05 171.447C849.31 174.352 842.43 176.935 835.56 179.518C834.95 179.749 835.19 180.724 835.83 180.523C845.28 177.528 854.76 174.573 864.64 173.437C864.55 173.116 864.47 172.794 864.38 172.472C862.31 174 860.17 175.216 857.78 176.181C857.91 176.493 858.05 176.814 858.18 177.126C860.55 175.779 862.98 174.724 865.58 173.92C865.41 173.628 865.24 173.337 865.08 173.055C863.97 174.472 862.85 175.89 861.74 177.307C861.43 177.699 861.7 178.312 862.24 178.171C867.71 176.764 873.18 175.357 878.65 173.95C878.48 173.658 878.31 173.367 878.15 173.085C875.08 175.809 871.79 178.181 868.26 180.251C867.68 180.593 868.19 181.427 868.78 181.146C870.65 180.271 872.37 179.256 874.03 178.02C873.78 177.829 873.52 177.628 873.27 177.437C872.87 178.583 872.48 179.729 872.08 180.864C871.98 181.166 872.26 181.548 872.58 181.518C876.72 181.186 880.62 180.161 884.39 178.392C884.22 178.091 884.04 177.789 883.87 177.498C881.13 179.347 878.39 181.206 875.65 183.055C875.15 183.387 875.47 184.111 876.05 184C878.59 183.538 881.04 182.895 883.48 182.06C883.27 181.849 883.06 181.638 882.84 181.417C882.56 182.784 882.23 183.799 881.58 185.085C881.39 185.457 881.71 186.01 882.16 185.849C882.82 185.618 883.67 185.156 884.39 185.276C884.59 185.307 884.83 185.779 885.06 185.849C885.94 186.141 886.38 186.241 887.26 185.91C887.05 185.699 886.84 185.487 886.62 185.266C886.43 186.432 886.17 187.297 885.64 188.392C885.47 188.754 885.68 189.156 886.09 189.176C887.55 189.246 889.26 189.085 890.68 189.407C892.66 189.849 892.41 190.513 893.5 191.719C894.49 192.814 895.85 193.166 897.27 193.005C897.92 192.935 897.93 191.89 897.27 191.97C895.99 192.261 894.87 191.789 893.91 190.553C893.76 190.151 893.61 189.749 893.44 189.357C893.21 189.035 893.17 188.905 892.9 188.704C891.43 187.658 887.8 188.231 886.09 188.141C886.24 188.402 886.39 188.663 886.54 188.925C887.08 187.819 887.43 186.764 887.63 185.548C887.69 185.196 887.4 184.754 886.99 184.905C886.32 184.673 885.65 184.442 884.97 184.211C884.86 184.02 884.6 183.9 884.39 183.97C883.55 184.261 882.72 184.553 881.88 184.844C882.07 185.096 882.27 185.357 882.46 185.608C883.11 184.332 883.54 183.096 883.83 181.699C883.9 181.337 883.59 180.925 883.19 181.055C880.75 181.889 878.3 182.533 875.76 182.995C875.89 183.307 876.03 183.628 876.16 183.94C878.9 182.091 881.64 180.231 884.38 178.382C884.94 178 884.46 177.206 883.86 177.487C880.25 179.166 876.53 180.151 872.57 180.462C872.74 180.683 872.9 180.905 873.07 181.116C873.47 179.97 873.86 178.824 874.26 177.689C874.4 177.286 873.86 176.834 873.5 177.106C871.84 178.342 870.12 179.357 868.25 180.231C868.42 180.533 868.6 180.834 868.77 181.126C872.39 179.005 875.74 176.573 878.87 173.799C879.27 173.447 878.84 172.804 878.37 172.935C872.9 174.342 867.43 175.749 861.96 177.156C862.13 177.447 862.3 177.739 862.46 178.02C863.57 176.603 864.69 175.186 865.8 173.769C866.09 173.397 865.84 172.734 865.3 172.905C862.61 173.729 860.09 174.824 857.65 176.211C857.16 176.493 857.49 177.387 858.05 177.156C860.51 176.161 862.76 174.915 864.9 173.337C865.26 173.075 865.21 172.302 864.64 172.372C854.66 173.518 845.09 176.462 835.55 179.487C835.64 179.819 835.73 180.151 835.82 180.493C843.14 177.739 850.46 174.985 857.62 171.849C861.18 170.292 864.7 168.643 868.15 166.854C870.86 165.447 873.39 164.05 875.17 161.498C875.42 161.146 875.08 160.754 874.72 160.714C862.6 159.447 849.43 163.819 838.7 169.146C838.22 169.387 838.48 170.101 838.96 170.111C844.59 170.302 850.11 169.749 855.59 168.442C856.25 168.332 855.97 167.337 855.33 167.487Z" fill="#00666B"/>
<path d="M584.86 56.9448C589.84 59.8995 589.81 64.6634 584.79 67.5578L330.43 213.799C325.41 216.683 316.66 218.161 310.98 217.085C310.98 217.085 275.8 210.412 247.92 191.618C225.34 176.392 214.45 162.442 214.45 162.442C210.88 157.869 212.07 151.769 217.09 148.884L473.32 1.55783C478.34 -1.3266 486.52 -1.27634 491.5 1.66838L584.86 56.9448Z" fill="#00666B"/>
<path d="M537.61 56.5329L534.76 54.9048C531.75 54.8244 528.39 55.7389 525 57.7389C511.53 65.6887 504.3 80.5028 501.25 94.3018C501.05 95.2163 500.95 96.2917 500.95 97.4575L512.11 103.809C515.49 105.498 520.02 105.106 525 102.211C535.46 96.141 543.94 81.3872 543.93 69.2465C543.94 62.7339 541.49 58.3018 537.61 56.5329Z" fill="#00585C"/>
<path d="M543.94 69.2466C543.94 81.3873 535.46 96.1411 525.01 102.211C514.55 108.282 506.07 103.357 506.07 91.2265C506.07 79.0858 514.55 64.332 525 58.2617C535.46 52.2014 543.94 57.116 543.94 69.2466Z" fill="#00585C"/>
<path d="M543.4 69.9903C543.4 81.3069 535.5 95.0657 525.75 100.724C516 106.382 508.09 101.799 508.09 90.4828C508.09 79.1662 515.99 65.4074 525.74 59.7491C535.5 54.0908 543.4 58.6737 543.4 69.9903Z" fill="#00585C"/>
<path opacity="0.5" d="M541.03 72.0604C541.03 81.6885 534.31 93.387 526.02 98.2011C517.73 103.015 511 99.1156 511 89.4875C511 79.8594 517.72 68.1609 526.01 63.3468C534.31 58.5327 541.03 62.4322 541.03 72.0604Z" fill="#007278"/>
<path opacity="0.5" d="M534 61.8091C536.12 63.4674 537.41 66.4724 537.41 70.5729C537.41 79.7186 531.02 90.8443 523.14 95.4171C519.34 97.6181 515.89 97.8995 513.33 96.5729C515.86 100.181 520.6 100.854 526.02 97.7086C534.11 93.0151 540.68 81.588 540.68 72.191C540.68 66.2211 538.02 62.5126 534 61.8091Z" fill="#007278"/>
<path d="M528.39 77.598C528.39 80.5126 526.35 84.0603 523.84 85.5176C521.33 86.9749 519.29 85.789 519.29 82.8744C519.29 79.9598 521.32 76.4121 523.84 74.9548C526.36 73.4975 528.39 74.6835 528.39 77.598Z" fill="#00585C"/>
<path d="M546.07 70.8241C546.09 69.6181 546.09 68.6633 546.09 68.3115C546.09 59.8291 541.23 55.0754 534.75 54.9146L537.6 56.5427C541.48 58.3115 543.93 62.7437 543.93 69.2563C543.93 69.6583 543.92 70.0703 543.9 70.4723L546.07 70.8241Z" fill="#00585C"/>
<path d="M368.63 152.633L364.89 150.492C362.06 150.743 359.02 151.698 356.02 153.346C341.95 161.045 334.04 175.035 331.22 189.457C331.07 190.241 330.84 191.417 330.59 192.784L343.13 199.909C346.51 201.598 351.04 201.206 356.02 198.311C366.48 192.241 374.95 177.487 374.95 165.346C374.96 158.834 372.51 154.402 368.63 152.633Z" fill="#00585C"/>
<path d="M374.96 165.347C374.96 177.488 366.48 192.242 356.03 198.312C345.57 204.382 337.09 199.458 337.09 187.327C337.09 175.196 345.57 160.432 356.03 154.362C366.48 148.292 374.96 153.206 374.96 165.347Z" fill="#00585C"/>
<path d="M374.42 166.091C374.42 177.408 366.52 191.166 356.77 196.825C347.02 202.483 339.11 197.89 339.11 186.583C339.11 175.267 347.02 161.508 356.77 155.85C366.52 150.191 374.42 154.774 374.42 166.091Z" fill="#00585C"/>
<path opacity="0.5" d="M372.05 168.151C372.05 177.769 365.33 189.477 357.04 194.281C348.75 199.096 342.02 195.196 342.02 185.568C342.02 175.94 348.74 164.241 357.03 159.427C365.33 154.633 372.05 158.523 372.05 168.151Z" fill="#007278"/>
<path opacity="0.5" d="M365.02 157.91C367.14 159.568 368.43 162.573 368.43 166.673C368.43 175.819 362.04 186.945 354.16 191.528C350.36 193.729 346.91 194.01 344.35 192.684C346.88 196.292 351.62 196.965 357.04 193.819C365.13 189.126 371.7 177.699 371.7 168.302C371.7 162.322 369.03 158.603 365.02 157.91Z" fill="#007278"/>
<path d="M359.41 173.699C359.41 176.614 357.37 180.161 354.86 181.619C352.35 183.076 350.31 181.89 350.31 178.975C350.31 176.061 352.35 172.513 354.86 171.056C357.38 169.598 359.41 170.774 359.41 173.699Z" fill="#00585C"/>
<path d="M364.89 150.493L368.63 152.633C372.51 154.402 374.96 158.834 374.96 165.347C374.96 167.126 374.77 168.975 374.42 170.834L377.84 172.694C377.94 169.367 378.03 165.789 378.1 164.362C378.6 154.272 372.52 149.809 364.89 150.493Z" fill="#00585C"/>
<path d="M574.76 30.1208C574.47 25.3067 568.81 20.6334 568.81 20.6334C568.81 20.6334 568.81 12.4625 568.23 6.62331C567.65 0.784111 560.53 -10.0099 556.18 -13.5073C551.82 -17.0048 520.18 -36.8541 507.7 -42.6832C495.21 -48.5224 486.79 -45.3063 486.79 -45.3063L457.9 -34.3616C434.67 -34.9445 404.77 -20.7938 387.35 -10.432C369.93 -0.0802116 345.4 15.6786 345.4 15.6786C333.79 23.2665 297.64 55.2163 297.64 55.2163C297.64 55.2163 283.99 61.7791 264.98 77.3972C245.96 93.0052 229.78 113.055 228.31 115.508C226.84 117.96 228.31 120.221 228.31 120.221L226.65 123.468C226.65 123.468 222.25 126.211 221.66 131.618C221.07 137.025 224.4 143.9 224.4 143.9C223.42 146.653 223.23 151.859 228.8 157.367C234.37 162.865 255.1 179.769 267.52 185.669C279.94 191.558 298.61 199.819 309.76 199.518C316.85 199.327 325.28 195.97 330.48 193.538C330.77 191.849 331.05 190.372 331.24 189.457C334.07 175.045 341.97 161.055 356.04 153.347C367.14 147.277 378.8 150.523 378.12 164.362C378.05 165.789 377.96 169.367 377.86 172.694L501.47 102.653C500.89 99.6886 500.78 96.4927 501.26 94.3017C504.31 80.5027 511.54 65.6886 525.01 57.7389C535.67 51.4474 546.11 55.8796 546.11 68.3017C546.11 68.6535 546.1 69.6283 546.08 70.8444C549.73 67.6786 555.32 62.8645 559.82 59.156C567.15 53.1057 572.45 45.1459 572.45 45.1459C572.45 45.1459 575.05 34.9349 574.76 30.1208Z" fill="#007E85"/>
<path d="M517.2 9.31684C489.33 7.24649 445.98 16.5832 423.27 42.5128C400.56 68.4525 380.95 104.754 380.95 104.754L311 169.89C310.96 169.407 308.46 168.04 289.08 164.925C263.27 160.774 234.37 132.764 234.37 132.764L235.36 163.196C244.12 170.553 258.17 181.216 267.51 185.659C279.93 191.548 298.6 199.809 309.75 199.508C316.84 199.317 325.27 195.96 330.47 193.528C330.76 191.839 331.04 190.362 331.23 189.448C334.06 175.035 341.96 161.046 356.03 153.337C364.43 148.744 373.15 149.488 376.6 156.121L377.86 154.543L531.66 48.7239L571.3 23.1058C569.99 21.5982 568.82 20.6234 568.82 20.6234C568.82 20.6234 568.82 12.4525 568.24 6.61333C567.97 3.93996 566.34 0.241464 564.23 -3.33643L534.76 10.3319C534.75 10.352 545.07 11.3972 517.2 9.31684Z" fill="#00585C"/>
<path d="M574.76 30.1208C574.47 25.3067 568.81 20.6333 568.81 20.6333C568.81 20.6333 568.81 16.3117 568.59 11.7188C566.98 14.9248 563.64 19.5378 556.77 24.0504L516.8 50.3117L364.27 143.92L364.22 143.97C360.84 144.191 357.3 145.216 353.84 147.106C341.75 153.719 332.87 163.618 327.46 175.025L331.58 173.91C331.58 173.91 329.35 175.277 326.73 176.603C326.73 176.603 326.72 176.603 326.72 176.613L322.5 178.483C318.63 179.869 312.04 183.739 302.7 182.744C293.36 181.749 270.72 173.096 254 162.583C238.9 153.086 226.91 142.623 221.61 133.427C221.77 138.442 224.4 143.9 224.4 143.9C223.42 146.653 223.23 151.859 228.8 157.367C234.37 162.864 255.1 179.769 267.52 185.668C279.94 191.558 298.61 199.819 309.76 199.518C316.85 199.327 325.28 195.97 330.48 193.538C330.77 191.849 331.05 190.372 331.24 189.457C334.07 175.045 341.97 161.055 356.04 153.347C367.14 147.277 378.8 150.523 378.12 164.362C378.1 164.684 378.09 165.116 378.07 165.628L380.96 171.166L501.73 102.694C501.77 102.372 501.67 102.985 501.73 102.694C504.78 88.8946 511.54 65.6986 525.02 57.7489C535.68 51.4574 546.12 55.8896 546.12 68.3117C546.12 68.6635 546.11 69.6383 546.09 70.8544C549.74 67.6886 555.33 62.8745 559.83 59.166C567.16 53.1157 572.46 45.1559 572.46 45.1559C572.46 45.1559 575.05 34.9348 574.76 30.1208Z" fill="#00585C"/>
<path d="M377.84 172.694L383.75 169.347C383.57 166.382 383.38 163.669 383.29 162.302C382.29 145.407 367.39 139.699 353.84 147.116C341.75 153.729 332.86 163.628 327.44 175.035L331.57 173.92C331.57 173.92 329.34 175.287 326.72 176.613C324.8 180.955 323.38 185.498 322.46 190.161C322.17 191.659 321.64 194.342 321.2 197.236C324.69 196.091 327.95 194.704 330.45 193.538C330.74 191.85 331.02 190.372 331.21 189.458C334.04 175.046 341.94 161.056 356.01 153.347C367.11 147.277 378.77 150.523 378.09 164.362C378.03 165.789 377.94 169.367 377.84 172.694Z" fill="#3A0CA3"/>
<path d="M377.84 172.694L383.75 169.347C383.57 166.382 383.38 163.669 383.29 162.302C382.29 145.407 367.39 139.699 353.84 147.116C341.75 153.729 332.86 163.628 327.44 175.035L331.57 173.92C331.57 173.92 329.34 175.287 326.72 176.613C324.8 180.955 323.38 185.498 322.46 190.161C322.17 191.659 321.64 194.342 321.2 197.236C324.69 196.091 327.95 194.704 330.45 193.538C330.74 191.85 331.02 190.372 331.21 189.458C334.04 175.046 341.94 161.056 356.01 153.347C367.11 147.277 378.77 150.523 378.09 164.362C378.03 165.789 377.94 169.367 377.84 172.694Z" fill="#00585C"/>
<path d="M540.08 56.2818C540.46 55.4074 540.68 54.9049 540.68 54.9049C541.82 53.8195 567.43 31.538 568.81 29.3571C570.19 27.1762 568.81 20.6436 568.81 20.6436C568.81 20.6436 568.81 16.322 568.59 11.729C566.98 14.935 563.64 19.5481 556.77 24.0607L516.8 50.322L516.45 50.533C516.12 51.9501 515.7 53.3773 515.16 54.4627C513.54 57.7692 505.58 69.7692 502.59 80.7742C499.61 91.7793 499.61 91.7793 499.61 91.7793C499.61 91.7793 498.92 93.4979 498.98 96.4225L501.09 95.2365C501.13 94.9149 501.19 94.6034 501.25 94.3119C504.3 80.5129 511.53 65.6989 525 57.7491C530.58 54.4526 536.08 54.1009 540.08 56.2818Z" fill="#3A0CA3"/>
<path d="M540.08 56.2818C540.46 55.4074 540.68 54.9049 540.68 54.9049C541.82 53.8195 567.43 31.538 568.81 29.3571C570.19 27.1762 568.81 20.6436 568.81 20.6436C568.81 20.6436 568.81 16.322 568.59 11.729C566.98 14.935 563.64 19.5481 556.77 24.0607L516.8 50.322L516.45 50.533C516.12 51.9501 515.7 53.3773 515.16 54.4627C513.54 57.7692 505.58 69.7692 502.59 80.7742C499.61 91.7793 499.61 91.7793 499.61 91.7793C499.61 91.7793 498.92 93.4979 498.98 96.4225L501.09 95.2365C501.13 94.9149 501.19 94.6034 501.25 94.3119C504.3 80.5129 511.53 65.6989 525 57.7491C530.58 54.4526 536.08 54.1009 540.08 56.2818Z" fill="#00585C"/>
<path d="M331.58 173.92L320.83 176.835C319.38 177.297 314.63 177.749 311.24 177.749C310.27 177.749 309.43 177.709 308.75 177.649C305.3 177.297 301.55 176.222 295.71 174.503C289.87 172.784 277.58 168.181 277.46 168.131C277.46 168.131 276.39 167.739 275.62 167.799C274.85 167.87 271.69 168.352 269.64 167.377C267.59 166.402 260.28 162.583 255.83 159.83C251.38 157.066 244.48 152.312 243.52 150.01C242.86 148.412 243.01 147.036 243.01 147.036L241.35 145.367C236.77 140.774 229.14 132.232 227.59 129.317C226.4 127.086 226.02 124.965 225.9 124.021C224.62 125.076 222.09 127.619 221.66 131.619C221.6 132.211 221.58 132.814 221.6 133.428C226.9 142.624 238.9 153.086 254 162.583C270.72 173.096 293.37 181.749 302.7 182.744C312.04 183.739 318.63 179.87 322.5 178.483C326.36 177.106 331.58 173.92 331.58 173.92Z" fill="#00585C"/>
<path d="M546.1 68.3016C546.1 68.6534 546.09 69.6282 546.07 70.8443C549.72 67.6785 555.31 62.8644 559.81 59.1559C567.14 53.1056 572.44 45.1458 572.44 45.1458C572.44 45.1458 575.05 34.9348 574.76 30.1207C574.74 29.8494 574.71 29.578 574.66 29.3066C573.48 31.1257 571.37 33.4071 567.9 36.6333C561.5 42.5931 540.68 54.8946 540.68 54.8946C540.25 55.1659 539.86 55.5277 539.52 55.98C543.48 57.8594 546.1 62.0805 546.1 68.3016Z" fill="#00585C"/>
<path d="M568.81 29.3571C567.43 31.538 541.82 53.8094 540.68 54.9049C540.68 54.9049 561.5 42.5933 567.9 36.6436C571.37 33.4174 573.48 31.136 574.66 29.3169C573.85 24.8044 568.81 20.6436 568.81 20.6436C568.81 20.6436 570.19 27.1762 568.81 29.3571Z" fill="#007278"/>
<path d="M285.92 183.176C279.81 180.573 273.38 177.829 267.51 174.664C258.03 169.538 242.28 159.448 233.15 152.473C233.43 153.598 233.78 154.895 234.08 155.709C234.71 157.458 235.76 158.051 235.76 158.051C243.74 165.066 260.05 177.839 270.43 182.764C275.24 185.046 281 187.689 286.88 190.03C286.88 190.03 288.26 190.573 289.66 190.412C289.73 190.272 289.79 190.121 289.84 189.96C290.45 188.101 290.62 185.176 285.92 183.176Z" fill="#007278"/>
<path d="M286.87 190.03C280.98 187.688 275.22 185.045 270.42 182.764C260.04 177.839 243.73 165.065 235.75 158.05C235.75 158.05 234.7 157.457 234.07 155.709C233.77 154.884 233.43 153.598 233.14 152.472C232.34 151.859 231.58 151.266 230.89 150.704C228.69 148.925 228.96 151.126 228.96 151.126C228.96 151.126 229.83 155.045 230.47 156.824C231.11 158.603 232.19 159.206 232.19 159.206C240.32 166.352 256.93 179.367 267.51 184.382C272.41 186.704 278.28 189.397 284.27 191.789C284.27 191.789 288.28 193.357 289.66 190.412C288.25 190.573 286.87 190.03 286.87 190.03Z" fill="#00585C"/>
<path d="M312.96 193.709C304.65 194.07 301.14 192.271 298.77 190.884C297.32 190.04 296.89 188.593 296.78 187.598C295.05 186.945 293.83 186.392 293.83 186.392C292.33 185.749 293.11 188.432 293.75 190.141C294.39 191.849 295.27 193.477 298.4 194.804C301.53 196.131 306.64 196.543 309.95 196.281C312.22 196.101 312.9 195.015 313.09 193.709C313.04 193.699 313 193.709 312.96 193.709Z" fill="#007278"/>
<path d="M313.14 191.819C313.08 189.829 311.24 189.91 311.24 189.91C311.24 189.91 308.75 189.91 304.49 189.608C302.09 189.437 299.01 188.432 296.78 187.598C296.89 188.593 297.32 190.04 298.77 190.885C301.14 192.272 304.65 194.071 312.96 193.709C313 193.709 313.04 193.699 313.09 193.699C313.17 193.096 313.15 192.442 313.14 191.819Z" fill="#00585C"/>
<path d="M515.18 29.3067C514.39 27.5077 513.21 26.2112 509.27 23.2565C505.73 20.6032 498.72 18.563 490.03 18.563C489.05 18.563 488.05 18.5931 487.02 18.6434C476.96 19.1761 465.83 25.8293 455.42 31.5982C445 37.367 429.29 47.2162 423.37 51.6484C417.46 56.0906 412.86 65.4876 409.16 72.5027C405.45 79.5178 395.29 99.1057 393.53 104.503C391.77 109.9 392.44 114.372 392.44 114.372L517.01 39.1157C516.99 39.1157 516.19 31.5881 515.18 29.3067Z" fill="#00585C"/>
<path d="M377.29 38.7039C364.33 30.5129 346.38 16.6938 346.38 16.6938C342.32 19.8898 315.09 41.719 308.99 47.8396C303.54 53.3069 298.7 58.6336 301.99 64.0104C305.28 69.3873 309.97 74.0908 316.62 78.714C320.16 81.1763 317.46 79.5582 328.71 86.2918C339.96 93.0255 360.31 103.156 370.23 106.553C372.22 107.237 374.03 107.508 375.66 107.508C382.19 107.508 385.82 103.146 385.82 103.146L411.85 56.6838" fill="#00585C"/>
<path d="M536.88 10.7438C536.88 10.7438 525.58 -7.1959 500.36 -21.1155C477.33 -33.819 460.96 -34.3718 458.29 -34.3718C458.04 -34.3718 457.9 -34.3617 457.9 -34.3617C457.44 -34.3718 456.97 -34.3818 456.5 -34.3818C447.79 -34.3818 438.21 -32.4019 428.74 -29.3969C428.97 -29.3567 447.74 -26.4924 463.76 -16.3517C478.9 -6.7738 491.02 3.80912 493.15 10.0302C493.31 10.0302 493.4 10.0202 493.4 10.0202C493.4 10.0202 520.5 11.5277 526.98 11.9197C527.7 11.9599 528.39 11.98 529.04 11.98C533.25 11.98 536.01 11.1659 536.91 10.8443L536.88 10.7438Z" fill="#00585C"/>
<path d="M499.59 -19.7185C477.06 -32.1506 461.62 -33.9697 458.67 -33.9697C458.47 -33.9697 457.14 -33.9295 457.12 -33.9195L454.4 -33.829C448.16 -33.829 441.09 -32.1205 433.28 -30.0401C440.3 -28.3416 454.04 -24.3918 464.61 -17.7084C479.84 -8.07023 491.23 2.02022 494.23 8.46243C498.62 8.70364 521.27 9.96997 527.08 10.3318C527.74 10.372 528.4 10.3921 529.04 10.3921C531.27 10.3921 533.07 10.1509 534.35 9.88957C530.86 5.14585 519.65 -8.65314 499.59 -19.7185Z" fill="#303E42"/>
<path d="M309.49 66.4624C317.79 73.3669 328.58 81.1961 338.77 86.8242C348.96 92.4423 367.15 101.99 372.85 103.498C375.79 104.271 378.5 104.653 380.74 104.834C382.89 103.879 384.19 102.573 384.51 102.221L409.61 57.4172C404.37 54.985 387.3 46.9147 376.43 40.0503C365.28 33.0051 350.32 21.7086 346.38 18.7036C339.52 24.1408 315.66 43.377 310.1 48.9649C306.55 52.5227 303.64 55.6885 302.77 58.6333C304.02 60.8845 306.08 63.6282 309.49 66.4624Z" fill="#007278"/>
<path d="M497.27 47.9698L515.3 37.1557C514.96 34.2814 514.32 31.2964 513.73 29.9598C513.11 28.5527 512.18 27.4372 508.32 24.5427C505.92 22.7437 501 20.8442 493.92 20.3115L497.27 47.9698Z" fill="#00666B"/>
<path d="M441.38 41.7188C434.39 46.0303 427.71 50.3821 424.32 52.9348C419.2 56.774 414.96 64.8745 411.55 71.377C411.21 72.0202 410.88 72.6434 410.56 73.2564C405.9 82.0705 396.65 100.06 395.04 105.005C394.19 107.598 393.99 108.282 393.95 109.95L445.35 79.1157L441.38 41.7188Z" fill="#00666B"/>
<path d="M455.95 72.7439L494.54 49.5982L490.98 20.171C490.66 20.161 490.35 20.161 490.03 20.161V18.563V20.161C489.07 20.161 488.08 20.1911 487.11 20.2414C478.24 20.7137 468.34 26.2313 458.77 31.568C457.91 32.0504 457.05 32.5328 456.19 33.0052C454.6 33.8796 452.88 34.8645 451.07 35.9198L455.95 72.7439Z" fill="#00666B"/>
<path d="M402.1 89.6685C398.82 96.2313 395.87 102.412 395.03 105.005C394.18 107.598 393.98 108.282 393.94 109.95L405.66 102.925L402.1 89.6685Z" fill="#00585C"/>
<path d="M499.59 -19.7183C481.25 -29.8389 467.6 -32.9243 461.57 -33.7183C456.75 -32.1102 450.32 -29.5575 446.11 -26.261C452.15 -24.1605 458.84 -21.3364 464.6 -17.6982C479.83 -8.05997 491.22 2.03048 494.22 8.47269C498.61 8.71389 521.26 9.98023 527.07 10.342C527.73 10.3822 528.39 10.4023 529.03 10.4023C531.26 10.4023 533.06 10.1611 534.34 9.89982C530.86 5.14605 519.65 -8.65294 499.59 -19.7183Z" fill="#007278"/>
<path d="M346.39 18.7036C339.53 24.1408 315.67 43.377 310.11 48.9649C306.56 52.5227 303.65 55.6885 302.78 58.6333C303.72 60.3418 305.13 62.3318 307.26 64.4423C318.86 55.3971 340.73 40.774 367.75 34.2714C358.6 27.9498 349.36 20.975 346.39 18.7036Z" fill="#007E85"/>
<path d="M306.25 45.5882C306.25 45.5882 301.31 42.2213 300.6 41.749C299.9 41.2766 297.72 39.4474 298.31 35.96C298.9 32.4726 301.38 31.759 302.78 31.8796C304.19 32.0002 309.36 35.1861 310.25 37.0756C311.13 38.965 311.07 41.8997 310.84 42.6535C310.6 43.3972 309.07 46.8846 306.25 45.5882Z" fill="#00585C"/>
<path d="M310.84 42.6535C310.98 42.1912 311.06 40.9148 310.9 39.558C310.16 41.0253 309.61 41.3771 306.69 41.0856C306.17 41.0354 305.26 40.7439 301.87 38.3218C300.18 37.1158 299.27 35.4675 298.78 34.3721C298.58 34.8243 298.42 35.3469 298.31 35.95C297.72 39.4374 299.9 41.2665 300.6 41.7389C301.3 42.2113 306.25 45.5781 306.25 45.5781C309.07 46.8846 310.6 43.3972 310.84 42.6535Z" fill="#00585C"/>
<path d="M310.85 43.6986L310.07 41.7489C310.07 41.7489 309.54 41.568 308.13 42.0403C306.72 42.5127 305.78 43.6383 305.84 44.2815C305.88 44.7137 306 46.6232 306.07 47.8293C307.54 46.5629 309.15 45.166 310.85 43.6986Z" fill="#00585C"/>
<path d="M410.96 98.3115C410.96 98.3115 409.15 97.7688 408.05 98.3115C406.95 98.8542 404.7 101.558 404.48 104.442C404.26 107.327 408.32 108.744 412.16 109.407C416 110.07 419.35 109.588 419.27 106.392C419.17 103.206 414.88 99.7688 410.96 98.3115Z" fill="#00585C"/>
<path d="M419.25 106.392C419.25 106.372 419.25 106.352 419.24 106.332C415.48 110.714 408.39 106.482 406.67 104.663C405.52 103.457 406.24 100.915 406.92 99.2261C405.84 100.372 404.62 102.362 404.46 104.442C404.24 107.327 408.3 108.744 412.14 109.407C415.99 110.08 419.34 109.588 419.25 106.392Z" fill="#00585C"/>
<path d="M404.47 104.443C404.62 102.473 405.72 100.583 406.76 99.4074L402.79 96.523C402.79 96.523 401.86 96.131 401.14 97.0355C400.42 97.9401 398.08 102.593 399.34 104.453C400.18 105.689 402.82 105.176 404.48 104.694C404.47 104.613 404.46 104.533 404.47 104.443Z" fill="#00585C"/>
<path d="M404.47 104.442C404.54 103.598 404.78 102.764 405.12 102C402.57 101.106 400.99 99.5681 400.24 98.6133C399.37 100.412 398.45 103.136 399.34 104.452C400.18 105.689 402.82 105.176 404.48 104.694C404.47 104.613 404.46 104.533 404.47 104.442Z" fill="#00585C"/>
<path d="M269.99 174.553C255.04 167.277 245.5 160.372 240.12 155.869C240.07 155.829 239.84 155.689 239.66 155.689C239.34 155.679 239.3 156.402 239.3 156.714V160.794C239.3 162.452 240.83 163.518 240.85 163.528C246.13 167.91 255.4 174.593 269.76 181.638C269.78 181.648 270.34 181.95 270.82 181.96C271.1 181.97 271.41 181.92 271.41 181.216V176.754C271.41 175.055 270 174.563 269.99 174.553Z" fill="#00878F"/>
<path d="M312.92 190.874C312.42 189.859 311.23 189.91 311.23 189.91C311.23 189.91 308.74 189.91 304.48 189.608C304.21 189.588 303.92 189.558 303.63 189.518C303.32 189.799 303.02 190.231 303.05 190.874C303.1 192.221 304.27 193.749 307.93 193.709C310.63 193.668 312.66 192.432 312.92 190.874Z" fill="#00878F"/>
<path d="M311.23 189.91C311.23 189.91 308.74 189.91 304.48 189.608C304.35 189.598 304.22 189.578 304.09 189.568C303.95 189.779 303.85 190.05 303.86 190.392C303.9 191.518 304.87 192.794 307.94 192.764C310.19 192.734 311.88 191.699 312.11 190.392C312.03 190.221 311.92 190.101 311.81 190C311.49 189.9 311.23 189.91 311.23 189.91Z" fill="#00878F"/>
<path d="M314.77 168.825C311.64 168.644 303.13 167.016 299.23 165.659C296.17 164.593 286.95 161.568 286.95 161.568C286.95 161.568 281.47 160.051 279.84 163.146C278.51 165.659 277.83 167.146 277.83 167.146C277.83 167.146 290.14 171.759 296.01 173.488C301.88 175.217 305.55 176.262 308.85 176.593C312.28 176.945 319 176.302 320.5 175.83C322 175.357 322 175.206 322 173.237C322.01 171.257 317.78 168.995 314.77 168.825Z" fill="#00878F"/>
<path d="M240.99 137.89C240.99 137.89 240.66 134.402 238.9 132.302C237.13 130.191 229.31 121.91 228.31 120.231L226.65 123.478C226.65 123.478 226.79 126.121 228.29 128.945C229.8 131.779 237.53 140.402 241.91 144.814L240.99 137.89Z" fill="#00878F"/>
<path d="M567.84 23.407C568.2 23.3366 568.33 23.2261 569.03 22.3517C568.89 21.4975 568.81 20.6432 568.81 20.6432C568.81 20.6432 568.81 13.9196 568.38 8.31152L567.12 12.7035L566.82 22.3919C566.82 22.3819 567.18 23.5276 567.84 23.407Z" fill="#00585C"/>
<path d="M730.18 201.286C770.85 217.337 697.23 242.613 670.8 217.487C670.32 211.568 686.68 213.729 700.77 205.97C706.3 202.924 702.1 194.472 710.25 195.759C714.14 196.372 726.52 199.849 730.18 201.286Z" fill="#00666B"/>
<path d="M635.59 188.894C641.99 186.693 647.68 191.829 656.58 186.553C666.92 180.422 658.8 175.98 651.71 171.729C644.61 167.477 629.19 160.764 610.13 167.427C591.06 174.09 596.76 184.201 602.59 192.422C608.43 200.633 622.41 203.859 629.35 200.784C636.3 197.698 628.63 191.296 635.59 188.894Z" fill="#00666B"/>
<path d="M652.1 37.9897C652.1 37.9897 665.65 62.5223 666.64 77.7485C666.64 77.7485 662.87 86.0901 660.12 78.6831C653.4 60.6128 648.76 45.1354 643.38 38.9846C638 32.8238 652.1 37.9897 652.1 37.9897Z" fill="#00878F"/>
<path d="M621.67 184.724L616.47 172.824C615.59 171.799 613.16 170.955 611.34 170.895C610.52 170.864 609.69 171.548 609.33 172.493L608.55 174.533C607.35 177.447 607.43 177.92 608.59 179.276L615.47 187.307C616.63 188.663 618.87 189.226 620.45 188.573L620.9 188.382C622.48 187.719 622.83 186.07 621.67 184.724Z" fill="#00585C"/>
<path d="M608.59 172.573C608.6 175.407 615.63 176.161 615.62 173.327L615.58 164.131L608.55 163.377L608.59 172.573Z" fill="#ACAFF2"/>
<path d="M648 174.04L636.4 165.769C634.91 165.186 633.08 164.985 630.96 165.477C630.01 165.699 629.87 164.985 629.9 165.869L628.81 169.568C627.81 172.03 627.53 172.432 630.34 173.467L642.06 178.03C644.03 178.794 646.89 178.593 648.4 177.568L648.83 177.276C650.35 176.271 649.97 174.814 648 174.04Z" fill="#00585C"/>
<path d="M629.92 166.563C629.92 169.477 636.99 169.487 636.99 166.563V157.075H630.59L629.92 166.563Z" fill="#ACAFF2"/>
<path d="M628.53 167.698C631.33 169.718 637.85 169.387 639.34 167.035C644.13 137.95 645.48 104.633 644.72 74.5626L622.68 67.9395C627.08 104.04 630.79 139.99 628.53 167.698Z" fill="#00585C"/>
<path d="M607.69 172.995C609.68 176.462 615.73 175.467 617.37 173.297L633.14 72.7338L609.63 70.9448L607.69 172.995Z" fill="#00585C"/>
<path d="M627.12 105.829L628.74 114.754L634.12 88.0101C633.03 88.3417 633.02 86.995 631.8 87.2161L627.12 105.829Z" fill="#00585C"/>
<path d="M614.73 47.8191C609.48 54.0703 606.88 57.1055 602.76 65.6683C600.06 71.2763 601.25 76.1206 603.58 79.1658C606.76 83.3366 610.42 88.0301 610.42 88.0301L606.34 91.7588C606.34 91.7588 591.48 78.9748 593.85 67.2462L602.61 39.4673L614.73 47.8191Z" fill="#00878F"/>
<path d="M606.88 89.0854L607.54 88.4623C608.75 87.3165 610.78 87.4773 612.05 88.8241L614.65 91.5879C615.92 92.9346 615.96 94.9849 614.74 96.1306L614.08 96.7537C612.87 97.8995 610.84 97.7386 609.57 96.3919L606.97 93.6281C605.71 92.2814 605.66 90.2311 606.88 89.0854Z" fill="#00878F"/>
<path d="M645.56 22.0503C652.56 33.3267 659.28 44.6835 660.04 52.392C658.2 58.8443 656.43 55.2563 651.94 56.8543L638.51 33.1659L642.19 26.9649L645.56 22.0503Z" fill="#00878F"/>
<path d="M646.3 76.0302C646.65 64.8744 646.95 54.5126 649.03 40.6634C649.63 21.4071 642.61 14.0603 630.41 18.1005L625.38 19.2764C610.57 26.7036 603.18 26.0804 605.31 41.6483L606.81 75.6885C606.26 93.1759 646.59 96.6131 646.3 76.0302Z" fill="#00878F"/>
<path d="M614.73 46.623L607.63 72.6331L606.8 75.1658L606.27 62.5025L614.73 46.623Z" fill="#007278"/>
<path d="M615.99 43.5778L602.29 69.6883C601.21 71.2662 593.24 68.7938 593.34 66.0099C593.54 60.1908 602.62 29.9597 611.27 26.1808C618.29 23.1255 620.11 34.2511 615.99 43.5778Z" fill="#00878F"/>
<path d="M664.5 88.4725C666.18 87.8493 667.06 85.9498 666.44 84.2614L663.78 76.975C663.16 75.2765 661.27 74.4021 659.59 75.0252C657.91 75.6483 657.03 77.5478 657.65 79.2363L660.31 86.5227C660.93 88.2212 662.81 89.0956 664.5 88.4725Z" fill="#00878F"/>
<path d="M666.18 82.5022C667.86 81.8791 668.74 79.9796 668.12 78.2912L665.46 71.0048C664.84 69.3063 662.95 68.4319 661.27 69.055C659.59 69.6781 658.71 71.5776 659.33 73.2661L661.99 80.5525C662.61 82.251 664.49 83.1354 666.18 82.5022Z" fill="#00878F"/>
<path d="M665.84 82.6128L660.04 85.7786L661.69 88.9947L667.86 85.1354L665.84 82.6128Z" fill="#007278"/>
<path d="M601.82 66.6532C601.82 66.6532 603.86 68.1607 602.83 70.2914C601.8 72.422 591.24 71.0652 592.02 67.6481C592.79 64.2311 593.41 62.7537 601.82 66.6532Z" fill="#007278"/>
<path d="M654 58.5428C652.37 58.8945 650.72 57.8493 650.42 56.2011C650.42 56.181 650.41 56.1508 650.41 56.1307C650.02 53.799 659.39 48.7337 660.73 51.9598C661.99 55.0051 661.6 56.8744 654 58.5428Z" fill="#007278"/>
<path d="M633.08 18.9043C633.08 18.9043 631.43 20.9143 630.5 21.246C629.57 21.5776 618.19 14.6228 620.65 4.7736C622.21 -1.46761 633.96 1.66807 633.96 1.66807L633.08 18.9043Z" fill="#00585C"/>
<path d="M626.58 27.3869L624.1 24.3316C626.01 24.8743 631.19 25.8995 631.73 23.9799L634.63 14.201C635.17 12.2814 634.04 10.2713 632.13 9.7286L631.56 9.56779C629.65 9.02508 627.65 10.1608 627.11 12.0804L622.68 22.0603C622.14 23.9799 624.67 26.8442 626.58 27.3869Z" fill="#00878F"/>
<path d="M632.99 20.05C632.99 20.05 628.26 19.648 625.67 14.7837C625.67 14.7837 627.91 22.0299 632.14 23.0751L632.99 20.05Z" fill="#00585C"/>
<path d="M609.73 99.9997C609.73 99.9997 615.55 89.7283 615.63 88.6831C615.63 88.6831 617.84 94.0399 615.63 97.0248C613.41 99.9997 609.73 99.9997 609.73 99.9997Z" fill="#00585C"/>
<path d="M733.68 67.4171C740.14 77.2664 742.54 84.181 745.09 95.5578C745.64 98.0101 745.85 99.4674 745.2 101.869C743.04 109.859 740.57 110.231 739.64 118.563C739.17 122.764 733.94 120.714 734.41 116.472C735.27 108.734 735.41 110.292 737.86 102.905C738.32 101.508 738.83 100.141 739.35 98.7639C738.87 100.02 739.51 100.945 739.26 99.8192C739.1 99.1156 738.96 98.4121 738.8 97.7187C736.36 86.7639 733.73 74.6131 727.51 65.1357C725.16 61.5578 730.88 58.2312 733.21 61.789L733.68 67.4171Z" fill="#00878F"/>
<path d="M735.09 64.3919C739.46 72.0502 742.63 84.9849 745.5 95.4673C746.59 98.3618 745.9 100.975 744.08 100.854L738 101.698C736.5 101.598 733.65 98.3417 732.94 95.9196L725.23 69.2764C723.97 64.9447 724.9 61.2161 727.37 60.6532L721.48 56.3316C721.91 54.7437 732.46 56.4824 735.09 64.3919Z" fill="#00878F"/>
<path d="M714.65 112.915L745.17 130.623C746.66 131.488 748.53 130.402 748.53 128.674V107.317C748.53 106.513 748.1 105.769 747.41 105.367L716.89 87.6584C715.4 86.7941 713.53 87.8796 713.53 89.6082V110.965C713.53 111.769 713.96 112.513 714.65 112.915Z" fill="#00585C"/>
<path d="M731.17 126.673L733.39 127.678C735.1 128.452 737.12 127.688 737.9 125.97C738.67 124.251 737.91 122.221 736.2 121.437L733.98 120.432C732.27 119.658 730.25 120.422 729.47 122.141C728.7 123.859 729.46 125.899 731.17 126.673Z" fill="#00878F"/>
<path d="M731.03 199.196L725 198.432C720.96 196.593 719.08 195.206 717.28 196.251L716.77 196.543C714.97 197.588 715.2 199.427 717.27 200.633L726.14 207.729C728.22 208.935 731.01 208.553 732.67 207.096C732.67 207.096 733.66 206.191 732.96 202.402C732.55 200.241 732.69 200.161 731.03 199.196Z" fill="#00585C"/>
<path d="M700.58 211.849C700.68 217.166 709.26 216.08 710.65 213.749C710.2 182.714 713.92 145.327 721.71 112.502H696.92C696.8 144.332 697.37 180.312 700.58 211.849Z" fill="#00585C"/>
<path d="M725.47 199.758C725.63 202.331 732.5 202.331 732.34 199.758L731.83 191.407H724.96L725.47 199.758Z" fill="white"/>
<path d="M724.38 200.522C727.12 203.357 732.95 202.673 733.99 200.623L729.66 112.422L712.4 114.995L724.38 200.522Z" fill="#00585C"/>
<path d="M719.954 44.5602C720.867 37.4594 718.362 31.2813 714.358 30.7611C710.354 30.241 706.368 35.5757 705.455 42.6765C704.542 49.7774 707.047 55.9554 711.051 56.4755C715.054 56.9957 719.04 51.6611 719.954 44.5602Z" fill="#FF8066"/>
<path d="M699.72 48.7435C701.42 54.7033 707.78 56.8641 711.52 52.9746C715.26 49.0852 716.91 41.0952 715.21 35.1354C713.51 29.1756 709.1 27.4973 705.36 31.3867C701.62 35.2661 698.02 42.7837 699.72 48.7435Z" fill="#00878F"/>
<path d="M714.11 65.9496L714.75 65.8089C716.9 65.3265 718.26 63.1656 717.78 61.0048L715.08 48.834C714.6 46.6732 712.45 45.3064 710.3 45.7888L709.66 45.9295C707.51 46.4119 706.15 48.5727 706.63 50.7335L707.51 62.8139C708 64.9646 711.96 66.432 714.11 65.9496Z" fill="#00878F"/>
<path d="M721.33 49.6379C721.33 49.6379 720.69 55.256 712.75 54.1304C707.05 53.3264 708.71 44.0098 703.02 43.0751C696.75 42.05 695.62 34.2711 698.09 31.2862C700.56 28.3013 707.46 26.7435 712.46 28.9545C717.44 31.1656 725.15 31.0349 721.33 49.6379Z" fill="#00585C"/>
<path d="M702.99 46.3114C703.4 47.7586 704.91 48.6028 706.35 48.1807C707.79 47.7687 708.63 46.2511 708.21 44.8038C707.8 43.3566 706.29 42.5124 704.85 42.9345C703.41 43.3466 702.57 44.8642 702.99 46.3114Z" fill="#00878F"/>
<path d="M730.39 111.337C728.36 100.161 732.54 92.5428 732.37 80.6634C733.33 60.8443 726.97 55.4273 720.16 56.1408C720.16 56.1408 714 57.97 712.6 58.6936C697.79 66.3619 693.84 68.7237 694.49 77.6182C694.42 92.2715 696.57 108.704 696.88 115.91C699.92 126.04 727 118.593 730.39 111.337Z" fill="#00666B"/>
<path d="M706.94 54.9345L707.58 53.437C707.58 53.437 706.43 54.5928 704.25 54.3114C704.25 54.3114 705.54 55.0451 706.94 54.9345Z" fill="#00585C"/>
<path d="M716.28 142.713L723.56 132.201L716.28 135.427V142.713Z" fill="#00585C"/>
<path d="M632.05 33.7585C630.61 34.06 629.21 33.2258 628.94 31.9092L628.18 28.261C627.91 26.9444 628.86 25.6278 630.3 25.3263C631.74 25.0248 633.14 25.859 633.41 27.1756L634.17 30.8238C634.44 32.1404 633.49 33.467 632.05 33.7585Z" fill="#00666B"/>
<path d="M630.1 32.9447C631.1 39.8392 629.12 65.8894 628.35 74.5528L633.89 78.4724L637 73.0955C636.67 64.6834 637 42.9749 633.89 31.8794L630.1 32.9447Z" fill="#00666B"/>
<path d="M624.3 18.4121L619.35 22.0503C619.35 22.0503 622.79 28.6835 627.01 29.8292L630.41 24.8443C630.4 24.8443 625.49 22.593 624.3 18.4121Z" fill="#007278"/>
<path d="M633.68 16.3115L637.64 18.412C637.64 18.412 639.07 27.3869 634.76 28.9949L629.81 24.8442C629.81 24.8442 633.68 23.0753 633.68 16.3115Z" fill="#007278"/>
<path d="M642.866 9.36108C643.292 3.13164 640.788 -2.11525 637.273 -2.35819C633.758 -2.60112 630.563 2.25191 630.136 8.48134C629.71 14.7108 632.214 19.9577 635.729 20.2006C639.244 20.4435 642.44 15.5905 642.866 9.36108Z" fill="#00878F"/>
<path d="M625.43 14.0703C627.22 19.1758 635.85 22.5728 638.9 18.9949C641.95 15.4069 640 6.50242 638.21 1.40694C636.42 -3.69858 632.49 -4.92472 629.44 -1.33678C626.39 2.24111 623.64 8.96473 625.43 14.0703Z" fill="#00878F"/>
<path d="M702.88 80.3817C702.81 81.4269 702.47 83.5375 702.2 84.5124C700.59 90.2912 696.66 109.749 683.48 105.196C671.01 100.884 660.79 88.9948 660.79 88.9948L668.69 84.7938L685.74 95.1757C685.74 95.1757 691.7 73.1455 696.86 70.1304C702.61 66.7636 703.07 77.4169 702.88 80.3817Z" fill="#00878F"/>
<path d="M681.86 97.5276C681.86 97.5276 687 79.196 695.6 70.9548C702.89 63.9699 690.19 95.4171 690.19 95.4171C690.19 95.4171 687.38 99.1558 686.72 99.0251C686.05 98.8844 681.86 97.5276 681.86 97.5276Z" fill="#00878F"/>
<path d="M631.64 2.02027C631.64 2.02027 632.44 12.0203 624.5 13.9901C624.5 13.9901 615.81 8.54289 622.64 -0.823948C628.66 -9.08525 637.64 -2.34154 637.64 -2.34154L631.64 2.02027Z" fill="#00585C"/>
<path d="M642.87 9.12548C642.87 9.12548 641.96 4.81392 636.85 2.83402L641.01 0.522461C641.01 0.532511 645.15 1.62799 642.87 9.12548Z" fill="#00585C"/>
<path d="M627.34 7.73877C629.14 5.46741 632.82 5.61816 638 7.68852C638.79 8.00007 639.64 8.17093 640.48 8.03022C644.4 7.35686 645.15 2.52268 645.15 2.52268C646.1 -0.693397 644.01 -2.23108 640.81 -3.18586L632.47 -5.66827C627.75 -7.10545 623.01 -3.32656 622.06 -0.110481L621.82 0.412133C620.87 3.62821 624.14 6.78399 627.34 7.73877Z" fill="#00585C"/>
<path d="M623.64 13.6582C624.08 14.8944 625.43 15.5477 626.66 15.1155C627.89 14.6733 628.54 13.3165 628.11 12.0803C627.67 10.8442 626.32 10.1909 625.09 10.6231C623.85 11.0552 623.2 12.4221 623.64 13.6582Z" fill="#00878F"/>
</g>
<defs>
<clipPath id="clip0">
<rect width="1200" height="200" fill="white"/>
</clipPath>
</defs>
</svg>
